<svg width="70" height="60" viewBox="0 0 70 60" fill="none" xmlns="http://www.w3.org/2000/svg">
<path d="M63.0192 0H6.58179C4.8362 0 3.16208 0.688062 1.92776 1.91282C0.693435 3.13758 0 4.79869 0 6.53076V38.1923C0.00205448 39.923 0.696402 41.5822 1.9305 42.8053C3.1646 44.0284 4.83754 44.7154 6.58179 44.7154H43.925V60L66.407 46.6154C67.3817 46.0374 68.1885 45.2181 68.7483 44.2378C69.3082 43.2576 69.602 42.1498 69.6009 41.0231V6.53076C69.6009 4.79869 68.9075 3.13758 67.6732 1.91282C66.4388 0.688062 64.7648 0 63.0192 0ZM22.3812 30H17.0165C16.8334 30.0139 16.6493 29.9901 16.4759 29.9301C16.3025 29.8701 16.1434 29.7752 16.0087 29.6513C15.8739 29.5275 15.7665 29.3773 15.693 29.2103C15.6194 29.0433 15.5815 28.863 15.5815 28.6808C15.5815 28.4985 15.6194 28.3183 15.693 28.1512C15.7665 27.9842 15.8739 27.8341 16.0087 27.7102C16.1434 27.5864 16.3025 27.4915 16.4759 27.4315C16.6493 27.3715 16.8334 27.3477 17.0165 27.3615H22.4044C22.7395 27.387 23.0525 27.537 23.2809 27.7816C23.5093 28.0262 23.6362 28.3473 23.6362 28.6808C23.6362 29.0142 23.5093 29.3354 23.2809 29.58C23.0525 29.8246 22.7395 29.9746 22.4044 30H22.3812ZM42.4443 25.2308H17.0165C16.8334 25.2446 16.6493 25.2209 16.4759 25.1609C16.3025 25.1008 16.1434 25.0059 16.0087 24.8821C15.8739 24.7582 15.7665 24.6081 15.693 24.4411C15.6194 24.2741 15.5815 24.0938 15.5815 23.9115C15.5815 23.7293 15.6194 23.549 15.693 23.382C15.7665 23.215 15.8739 23.0649 16.0087 22.941C16.1434 22.8171 16.3025 22.7222 16.4759 22.6622C16.6493 22.6022 16.8334 22.5784 17.0165 22.5923H42.4443C42.7794 22.6177 43.0925 22.7677 43.3209 23.0123C43.5493 23.2569 43.6761 23.5781 43.6761 23.9115C43.6761 24.245 43.5493 24.5661 43.3209 24.8107C43.0925 25.0553 42.7794 25.2054 42.4443 25.2308ZM52.6077 21.1538H47.181C46.8274 21.1538 46.4882 21.0144 46.2382 20.7663C45.9881 20.5182 45.8476 20.1817 45.8476 19.8308C45.8476 19.4799 45.9881 19.1433 46.2382 18.8952C46.4882 18.6471 46.8274 18.5077 47.181 18.5077H52.6077C52.9613 18.5077 53.3005 18.6471 53.5506 18.8952C53.8006 19.1433 53.9411 19.4799 53.9411 19.8308C53.9411 20.1817 53.8006 20.5182 53.5506 20.7663C53.3005 21.0144 52.9613 21.1538 52.6077 21.1538ZM52.6077 16.3846H27.1489C26.7952 16.3846 26.4561 16.2452 26.206 15.9971C25.9559 15.749 25.8155 15.4124 25.8155 15.0615C25.8155 14.7106 25.9559 14.3741 26.206 14.126C26.4561 13.8779 26.7952 13.7385 27.1489 13.7385H52.6077C52.9613 13.7385 53.3005 13.8779 53.5506 14.126C53.8006 14.3741 53.9411 14.7106 53.9411 15.0615C53.9411 15.4124 53.8006 15.749 53.5506 15.9971C53.3005 16.2452 52.9613 16.3846 52.6077 16.3846Z" fill="#1BA160"/>
</svg>
