<svg width="36" height="36" viewBox="0 0 36 36" fill="none" xmlns="http://www.w3.org/2000/svg">
<g clip-path="url(#clip0_512_6)">
<path d="M0 4.5C0 3.30653 0.474106 2.16193 1.31802 1.31802C2.16193 0.474106 3.30653 0 4.5 0L31.5 0C32.6935 0 33.8381 0.474106 34.682 1.31802C35.5259 2.16193 36 3.30653 36 4.5V22.5C36 23.6935 35.5259 24.8381 34.682 25.682C33.8381 26.5259 32.6935 27 31.5 27H9.9315C9.33481 27.0001 8.76261 27.2373 8.34075 27.6593L1.9215 34.0785C1.76429 34.2361 1.56386 34.3435 1.34558 34.3872C1.1273 34.4308 0.900971 34.4087 0.695248 34.3237C0.489526 34.2387 0.313654 34.0945 0.189894 33.9095C0.0661333 33.7244 4.72835e-05 33.5069 0 33.2843L0 4.5ZM11.25 13.5C11.25 12.9033 11.0129 12.331 10.591 11.909C10.169 11.4871 9.59674 11.25 9 11.25C8.40326 11.25 7.83097 11.4871 7.40901 11.909C6.98705 12.331 6.75 12.9033 6.75 13.5C6.75 14.0967 6.98705 14.669 7.40901 15.091C7.83097 15.5129 8.40326 15.75 9 15.75C9.59674 15.75 10.169 15.5129 10.591 15.091C11.0129 14.669 11.25 14.0967 11.25 13.5ZM20.25 13.5C20.25 12.9033 20.0129 12.331 19.591 11.909C19.169 11.4871 18.5967 11.25 18 11.25C17.4033 11.25 16.831 11.4871 16.409 11.909C15.9871 12.331 15.75 12.9033 15.75 13.5C15.75 14.0967 15.9871 14.669 16.409 15.091C16.831 15.5129 17.4033 15.75 18 15.75C18.5967 15.75 19.169 15.5129 19.591 15.091C20.0129 14.669 20.25 14.0967 20.25 13.5ZM27 15.75C27.5967 15.75 28.169 15.5129 28.591 15.091C29.0129 14.669 29.25 14.0967 29.25 13.5C29.25 12.9033 29.0129 12.331 28.591 11.909C28.169 11.4871 27.5967 11.25 27 11.25C26.4033 11.25 25.831 11.4871 25.409 11.909C24.9871 12.331 24.75 12.9033 24.75 13.5C24.75 14.0967 24.9871 14.669 25.409 15.091C25.831 15.5129 26.4033 15.75 27 15.75V15.75Z" fill="white"/>
</g>
<defs>
<clipPath id="clip0_512_6">
<rect width="36" height="36" fill="white"/>
</clipPath>
</defs>
</svg>
