<svg width="34" height="26" viewBox="0 0 34 26" fill="none" xmlns="http://www.w3.org/2000/svg">
<path d="M32.7857 0H1.21429C0.542634 0 0 0.528125 0 1.18182V7.09091H34V1.18182C34 0.528125 33.4574 0 32.7857 0ZM0 24.8182C0 25.4719 0.542634 26 1.21429 26H32.7857C33.4574 26 34 25.4719 34 24.8182V10.3409H0V24.8182ZM21.971 18.0227C21.971 17.8602 22.1076 17.7273 22.2746 17.7273H28.5357C28.7027 17.7273 28.8393 17.8602 28.8393 18.0227V20.6818C28.8393 20.8443 28.7027 20.9773 28.5357 20.9773H22.2746C22.1076 20.9773 21.971 20.8443 21.971 20.6818V18.0227Z" fill="#161C2D"/>
</svg>
