<svg width="58" height="58" viewBox="0 0 58 58" fill="none" xmlns="http://www.w3.org/2000/svg">
<path d="M32.2222 16.1111H29.58C26.0033 16.1111 22.5556 19.9778 22.5556 23.0711V29L12.8889 38.6667V29H6.44444C2.9 29 0 26.1 0 22.5556V6.44444C0 2.9 2.9 0 6.44444 0H25.7778C29.3222 0 32.2222 2.9 32.2222 6.44444V16.1111ZM32.2222 19.3333H51.5556C55.1 19.3333 58 22.2333 58 25.7778V41.8889C58 45.4333 55.1 48.3333 51.5556 48.3333H45.1111V58L35.4444 48.3333H32.2222C28.6778 48.3333 25.7778 45.4333 25.7778 41.8889V25.7778C25.7778 22.2333 28.6778 19.3333 32.2222 19.3333Z" fill="#3498DB"/>
</svg>
