<svg width="24" height="24" viewBox="0 0 24 24" fill="none" xmlns="http://www.w3.org/2000/svg">
<path d="M23.8617 9.97925L22.9141 6.95669C22.8118 6.60736 22.6402 6.28221 22.4095 6.00065C22.1788 5.71908 21.8938 5.48686 21.5714 5.31783C21.249 5.14881 20.8959 5.04644 20.5331 5.01684C20.1703 4.98725 19.8053 5.03102 19.4597 5.14555L19.0519 5.27749C18.7325 5.38309 18.3922 5.40988 18.0601 5.35558C17.7281 5.30128 17.4141 5.1675 17.1449 4.96563L17.0129 4.86968C16.7502 4.66862 16.5385 4.40865 16.3947 4.11072C16.251 3.81279 16.1792 3.48524 16.1853 3.1545V2.81866C16.1911 2.06545 15.8978 1.34071 15.3697 0.803617C15.1185 0.549881 14.8197 0.348268 14.4903 0.210359C14.161 0.0724506 13.8077 0.000962172 13.4506 0H10.3921C9.65823 0.00948301 8.95785 0.308484 8.44342 0.831903C7.92898 1.35532 7.64216 2.06078 7.64538 2.79467V3.08253C7.64423 3.43069 7.56496 3.77416 7.41342 4.08761C7.26189 4.40106 7.04194 4.67652 6.7698 4.89367L6.61387 5.01361C6.31323 5.24105 5.96158 5.39162 5.58951 5.45224C5.21743 5.51286 4.83618 5.48169 4.47889 5.36145C4.15074 5.24789 3.80297 5.2021 3.45661 5.22684C3.11026 5.25158 2.77252 5.34633 2.46385 5.50538C2.14247 5.66488 1.85735 5.88883 1.62624 6.16327C1.39513 6.43771 1.22298 6.75678 1.12049 7.10062L0.136957 10.2191C-0.0911237 10.9222 -0.0326321 11.6869 0.29973 12.3472C0.632093 13.0074 1.21149 13.5099 1.91211 13.7455H2.10402C2.42722 13.8666 2.71729 14.0622 2.95071 14.3164C3.18412 14.5707 3.35428 14.8764 3.44738 15.2088L3.51935 15.4007C3.65305 15.7678 3.69777 16.1615 3.64981 16.5493C3.60185 16.9371 3.4626 17.308 3.24348 17.6316C2.79995 18.2356 2.61287 18.9903 2.72293 19.7316C2.83299 20.4728 3.2313 21.1406 3.8312 21.5897L6.31401 23.4728C6.78413 23.8146 7.35204 23.9955 7.93324 23.9886C8.0888 24.0038 8.24547 24.0038 8.40102 23.9886C8.76097 23.9189 9.10295 23.7766 9.40609 23.5704C9.70923 23.3642 9.96718 23.0984 10.1642 22.7891L10.44 22.3933C10.6336 22.1157 10.8896 21.8875 11.1876 21.7271C11.4855 21.5667 11.817 21.4785 12.1552 21.4698C12.5097 21.461 12.8607 21.5423 13.1753 21.7059C13.4899 21.8695 13.7579 22.1101 13.9544 22.4053L14.0983 22.6092C14.3028 22.9136 14.5674 23.1728 14.8759 23.3711C15.1844 23.5693 15.5302 23.7023 15.892 23.7618C16.2538 23.8214 16.624 23.8062 16.9797 23.7173C17.3354 23.6284 17.6692 23.4677 17.9605 23.2449L20.3953 21.4218C20.971 20.9747 21.3538 20.3243 21.4653 19.6039C21.5769 18.8836 21.4086 18.1479 20.995 17.5476L20.6832 17.0919C20.4956 16.8021 20.3728 16.4753 20.3232 16.1338C20.2735 15.7922 20.2981 15.444 20.3953 15.1128C20.4944 14.7583 20.6783 14.4333 20.9312 14.1658C21.184 13.8983 21.4982 13.6964 21.8466 13.5775L22.0865 13.4936C22.7806 13.2527 23.3539 12.7514 23.6852 12.0956C24.0164 11.4398 24.0797 10.6809 23.8617 9.97925ZM11.9993 16.1923C11.169 16.1923 10.3574 15.9461 9.66702 15.4848C8.97666 15.0235 8.4386 14.3679 8.12086 13.6008C7.80312 12.8337 7.71999 11.9896 7.88197 11.1753C8.04395 10.361 8.44377 9.61295 9.03087 9.02585C9.61797 8.43875 10.366 8.03893 11.1803 7.87695C11.9946 7.71497 12.8387 7.7981 13.6058 8.11584C14.3729 8.43358 15.0285 8.97164 15.4898 9.662C15.9511 10.3524 16.1973 11.164 16.1973 11.9943C16.1973 13.1077 15.755 14.1754 14.9677 14.9627C14.1805 15.75 13.1127 16.1923 11.9993 16.1923Z" fill="#E5E5E5"/>
</svg>
