<svg width="26" height="28" viewBox="0 0 26 28" fill="none" xmlns="http://www.w3.org/2000/svg">
<path fill-rule="evenodd" clip-rule="evenodd" d="M25.3529 25.4915C25.3529 26.376 24.9 27.0958 24.34 27.0958H1.66001C1.10001 27.0958 0.647064 26.376 0.647064 25.4915C0.647064 24.6038 1.10001 23.884 1.66001 23.884H24.34C24.9 23.884 25.3529 24.6038 25.3529 25.4915Z" fill="#1BA160"/>
<path fill-rule="evenodd" clip-rule="evenodd" d="M7.148 21.0132C7.148 21.6341 6.54518 22.1431 5.804 22.1431H3.78965C3.04683 22.1431 2.4473 21.6341 2.4473 21.0132V15.3473C2.4473 14.7247 3.04683 14.2174 3.78965 14.2174H5.804C6.54518 14.2174 7.148 14.7247 7.148 15.3473V21.0132Z" fill="#1BA160"/>
<path fill-rule="evenodd" clip-rule="evenodd" d="M15.324 21.0148C15.324 21.6374 14.7228 22.1431 13.9816 22.1431H11.9656C11.2245 22.1431 10.6233 21.6374 10.6233 21.0148V13.636C10.6233 13.0134 11.2245 12.5078 11.9656 12.5078H13.9816C14.7228 12.5078 15.324 13.0134 15.324 13.636V21.0148Z" fill="#1BA160"/>
<path fill-rule="evenodd" clip-rule="evenodd" d="M23.6038 20.9704C23.6038 21.588 22.9993 22.0904 22.2466 22.0904H20.2108C19.4598 22.0904 18.8537 21.588 18.8537 20.9704V10.2562C18.8537 9.63858 19.4598 9.13623 20.2108 9.13623H22.2466C22.9993 9.13623 23.6038 9.63858 23.6038 10.2562V20.9704Z" fill="#1BA160"/>
<path fill-rule="evenodd" clip-rule="evenodd" d="M1.856 12.2228C1.23177 12.2212 0.717883 11.7336 0.694824 11.1143C0.671766 10.4802 1.17412 9.95153 1.81812 9.93011C10.06 9.63859 17.9066 6.46306 23.3518 1.21224C23.8113 0.770824 24.5459 0.775766 24.9988 1.232C25.4485 1.68329 25.4402 2.41294 24.9807 2.85435C19.0414 8.58117 10.844 11.9082 1.89882 12.2212C1.88565 12.2228 1.86918 12.2228 1.856 12.2228Z" fill="#1BA160"/>
</svg>
