<svg width="28" height="28" viewBox="0 0 28 28" fill="none" xmlns="http://www.w3.org/2000/svg">
<path fill-rule="evenodd" clip-rule="evenodd" d="M28 26.4444C28 26.857 27.8361 27.2527 27.5444 27.5444C27.2527 27.8361 26.857 28 26.4444 28H1.55556C1.143 28 0.747335 27.8361 0.455612 27.5444C0.163888 27.2527 0 26.857 0 26.4444V1.55556C0 1.143 0.163888 0.747335 0.455612 0.455612C0.747335 0.163888 1.143 0 1.55556 0C1.96811 0 2.36378 0.163888 2.6555 0.455612C2.94722 0.747335 3.11111 1.143 3.11111 1.55556V24.8889H26.4444C26.857 24.8889 27.2527 25.0528 27.5444 25.3445C27.8361 25.6362 28 26.0319 28 26.4444Z" fill="#1BA160"/>
<path fill-rule="evenodd" clip-rule="evenodd" d="M25.521 4.1433L24.2452 6.06055C24.4169 6.39853 24.5065 6.77338 24.5028 7.15437C24.5008 7.77939 24.2612 8.38017 23.8328 8.8345C23.4044 9.28884 22.8193 9.5626 22.1966 9.6001L20.4179 13.1642C20.6281 13.4837 20.7609 13.848 20.8057 14.228C20.8506 14.6081 20.8062 14.9933 20.6763 15.3531C20.5463 15.713 20.3343 16.0374 20.0571 16.3007C19.7799 16.5639 19.4452 16.7587 19.0796 16.8695C18.714 16.9802 18.3276 17.004 17.9513 16.9388C17.5749 16.8736 17.2189 16.7212 16.9117 16.4939C16.6045 16.2665 16.3545 15.9705 16.1816 15.6292C16.0087 15.288 15.9178 14.9111 15.916 14.5284V14.4915L13.4258 12.9922C13.2086 13.1151 12.9719 13.2035 12.7266 13.2502L10.9478 18.6087C10.8656 18.8528 10.7088 19.0649 10.4997 19.2148C10.2905 19.3648 10.0397 19.4451 9.78249 19.4445C9.64954 19.4411 9.51759 19.4204 9.38995 19.383C9.08256 19.2764 8.82929 19.053 8.68473 18.761C8.54017 18.4691 8.51589 18.1319 8.61714 17.8222L10.3958 12.4637C10.1332 12.1653 9.94674 11.8075 9.85253 11.421C9.75832 11.0345 9.75917 10.6308 9.85499 10.2447C9.95082 9.85864 10.1388 9.50161 10.4027 9.20432C10.6666 8.90703 10.9986 8.67837 11.3701 8.53798C11.7417 8.39758 12.1417 8.34964 12.5358 8.39829C12.93 8.44693 13.3064 8.5907 13.6329 8.81725C13.9593 9.0438 14.226 9.34635 14.41 9.69892C14.594 10.0515 14.6898 10.4435 14.6893 10.8414V10.8783L17.1794 12.3777C17.4984 12.197 17.8566 12.095 18.2221 12.0827L20.0008 8.51857C19.757 8.14724 19.6179 7.71681 19.5981 7.27278C19.5784 6.82875 19.6788 6.38762 19.8886 5.99604C20.0985 5.60445 20.4101 5.27696 20.7904 5.04818C21.1708 4.8194 21.6058 4.69785 22.0494 4.69636C22.1029 4.69432 22.1564 4.69844 22.2089 4.70865L23.4846 2.79139C23.6764 2.55292 23.9501 2.39474 24.2521 2.34784C24.5541 2.30095 24.8628 2.36871 25.1176 2.53786C25.3723 2.70701 25.5549 2.96537 25.6295 3.26233C25.7042 3.55928 25.6654 3.87345 25.521 4.1433Z" fill="#1BA160"/>
</svg>
