<svg width="28" height="28" viewBox="0 0 28 28" fill="none" xmlns="http://www.w3.org/2000/svg">
<path d="M0 3.66183C0 2.69065 0.368749 1.75925 1.02513 1.07253C1.6815 0.385799 2.57174 0 3.5 0L24.5 0C25.4283 0 26.3185 0.385799 26.9749 1.07253C27.6313 1.75925 28 2.69065 28 3.66183V18.3092C28 19.2803 27.6313 20.2117 26.9749 20.8985C26.3185 21.5852 25.4283 21.971 24.5 21.971H7.7245C7.26041 21.9711 6.81536 22.1641 6.48725 22.5074L1.4945 27.731C1.37223 27.8593 1.21634 27.9467 1.04656 27.9822C0.876787 28.0177 0.700755 27.9998 0.540749 27.9306C0.380742 27.8614 0.243953 27.7441 0.147695 27.5935C0.051437 27.4429 3.6776e-05 27.2659 0 27.0847L0 3.66183ZM8.75 10.9855C8.75 10.4999 8.56563 10.0342 8.23744 9.69084C7.90925 9.34748 7.46413 9.15458 7 9.15458C6.53587 9.15458 6.09075 9.34748 5.76256 9.69084C5.43437 10.0342 5.25 10.4999 5.25 10.9855C5.25 11.4711 5.43437 11.9368 5.76256 12.2801C6.09075 12.6235 6.53587 12.8164 7 12.8164C7.46413 12.8164 7.90925 12.6235 8.23744 12.2801C8.56563 11.9368 8.75 11.4711 8.75 10.9855ZM15.75 10.9855C15.75 10.4999 15.5656 10.0342 15.2374 9.69084C14.9092 9.34748 14.4641 9.15458 14 9.15458C13.5359 9.15458 13.0908 9.34748 12.7626 9.69084C12.4344 10.0342 12.25 10.4999 12.25 10.9855C12.25 11.4711 12.4344 11.9368 12.7626 12.2801C13.0908 12.6235 13.5359 12.8164 14 12.8164C14.4641 12.8164 14.9092 12.6235 15.2374 12.2801C15.5656 11.9368 15.75 11.4711 15.75 10.9855ZM21 12.8164C21.4641 12.8164 21.9092 12.6235 22.2374 12.2801C22.5656 11.9368 22.75 11.4711 22.75 10.9855C22.75 10.4999 22.5656 10.0342 22.2374 9.69084C21.9092 9.34748 21.4641 9.15458 21 9.15458C20.5359 9.15458 20.0908 9.34748 19.7626 9.69084C19.4344 10.0342 19.25 10.4999 19.25 10.9855C19.25 11.4711 19.4344 11.9368 19.7626 12.2801C20.0908 12.6235 20.5359 12.8164 21 12.8164Z" fill="#1BA160"/>
</svg>
