<svg width="69" height="60" viewBox="0 0 69 60" fill="none" xmlns="http://www.w3.org/2000/svg">
<path d="M61.6083 0H6.43442C4.72791 0 3.09127 0.688062 1.88458 1.91282C0.677895 3.13758 -1.52588e-05 4.79869 -1.52588e-05 6.53076V38.1923C0.00199322 39.923 0.680796 41.5822 1.88727 42.8053C3.09374 44.0284 4.72922 44.7154 6.43442 44.7154H42.9416V60L64.9202 46.6154C65.8731 46.0374 66.6618 45.2181 67.2092 44.2378C67.7565 43.2576 68.0438 42.1498 68.0427 41.0231V6.53076C68.0427 4.79869 67.3648 3.13758 66.1581 1.91282C64.9514 0.688062 63.3148 0 61.6083 0ZM21.8801 30H16.6355C16.4565 30.0139 16.2765 29.9901 16.107 29.9301C15.9375 29.8701 15.782 29.7752 15.6503 29.6513C15.5185 29.5275 15.4135 29.3773 15.3416 29.2103C15.2697 29.0433 15.2326 28.863 15.2326 28.6808C15.2326 28.4985 15.2697 28.3183 15.3416 28.1512C15.4135 27.9842 15.5185 27.8341 15.6503 27.7102C15.782 27.5864 15.9375 27.4915 16.107 27.4315C16.2765 27.3715 16.4565 27.3477 16.6355 27.3615H21.9028C22.2304 27.387 22.5364 27.537 22.7597 27.7816C22.983 28.0262 23.107 28.3473 23.107 28.6808C23.107 29.0142 22.983 29.3354 22.7597 29.58C22.5364 29.8246 22.2304 29.9746 21.9028 30H21.8801ZM41.4941 25.2308H16.6355C16.4565 25.2446 16.2765 25.2209 16.107 25.1609C15.9375 25.1008 15.782 25.0059 15.6503 24.8821C15.5185 24.7582 15.4135 24.6081 15.3416 24.4411C15.2697 24.2741 15.2326 24.0938 15.2326 23.9115C15.2326 23.7293 15.2697 23.549 15.3416 23.382C15.4135 23.215 15.5185 23.0649 15.6503 22.941C15.782 22.8171 15.9375 22.7222 16.107 22.6622C16.2765 22.6022 16.4565 22.5784 16.6355 22.5923H41.4941C41.8216 22.6177 42.1277 22.7677 42.351 23.0123C42.5743 23.2569 42.6983 23.5781 42.6983 23.9115C42.6983 24.245 42.5743 24.5661 42.351 24.8107C42.1277 25.0553 41.8216 25.2054 41.4941 25.2308ZM51.4299 21.1538H46.1247C45.779 21.1538 45.4474 21.0144 45.203 20.7663C44.9585 20.5182 44.8212 20.1817 44.8212 19.8308C44.8212 19.4799 44.9585 19.1433 45.203 18.8952C45.4474 18.6471 45.779 18.5077 46.1247 18.5077H51.4299C51.7756 18.5077 52.1072 18.6471 52.3517 18.8952C52.5961 19.1433 52.7335 19.4799 52.7335 19.8308C52.7335 20.1817 52.5961 20.5182 52.3517 20.7663C52.1072 21.0144 51.7756 21.1538 51.4299 21.1538ZM51.4299 16.3846H26.541C26.1953 16.3846 25.8638 16.2452 25.6193 15.9971C25.3748 15.749 25.2375 15.4124 25.2375 15.0615C25.2375 14.7106 25.3748 14.3741 25.6193 14.126C25.8638 13.8779 26.1953 13.7385 26.541 13.7385H51.4299C51.7756 13.7385 52.1072 13.8779 52.3517 14.126C52.5961 14.3741 52.7335 14.7106 52.7335 15.0615C52.7335 15.4124 52.5961 15.749 52.3517 15.9971C52.1072 16.2452 51.7756 16.3846 51.4299 16.3846Z" fill="#1BA160"/>
</svg>
