<svg width="1437" height="740" viewBox="0 0 1437 740" fill="none" xmlns="http://www.w3.org/2000/svg">
<path d="M1590 412.869C1590 660.917 1388.92 862 1140.87 862L281.878 862C76.4954 862 -90 695.505 -90 490.122L-90 361.966C-89.9999 205.593 47.4074 84.8151 202.489 104.876C255.839 111.777 310.014 101.911 357.505 76.6442L398.99 54.5731C450.772 27.0234 507.903 11.005 566.459 7.61759L679.164 1.0977C726.153 -1.62056 773.29 2.30944 819.179 12.7714L1054.4 66.3977C1126.46 82.8259 1201.72 78.3091 1271.3 53.3796L1327.18 33.3552C1364.62 19.9407 1405.25 18.2007 1443.7 28.365C1529.93 51.1612 1590 129.171 1590 218.366L1590 412.869Z" fill="#1BA160"/>
</svg>
