<svg width="24" height="24" viewBox="0 0 24 24" fill="none" xmlns="http://www.w3.org/2000/svg">
<path d="M24 12C24 5.36571 18.6171 0 12 0C5.36571 0 0 5.36571 0 12C0 18.6343 5.36571 24 12 24C18.6171 24 24 18.6343 24 12ZM13.2 14.5371H10.5257V13.8C10.5257 13.1486 10.6629 12.6 10.9371 12.12C11.2114 11.64 11.7257 11.1429 12.4457 10.5943C13.1486 10.0971 13.6114 9.68571 13.8343 9.37714C14.0743 9.06857 14.1771 8.70857 14.1771 8.31429C14.1771 7.88571 14.0229 7.56 13.6971 7.32C13.3714 7.09714 12.9257 6.99429 12.3429 6.99429C11.3486 6.99429 10.2 7.32 8.91429 7.97143L7.81714 5.77714C9.30857 4.93714 10.9029 4.50857 12.5657 4.50857C13.9543 4.50857 15.0514 4.85143 15.8571 5.50286C16.68 6.17143 17.0743 7.06286 17.0743 8.16C17.0743 8.89714 16.92 9.53143 16.5771 10.0629C16.2514 10.6114 15.6 11.2114 14.6743 11.88C14.0229 12.36 13.6286 12.72 13.4571 12.96C13.2857 13.2171 13.2 13.5429 13.2 13.9371V14.5371V14.5371ZM10.68 19.2343C10.3714 18.9429 10.2171 18.5143 10.2171 17.9829C10.2171 17.4171 10.3543 16.9886 10.6629 16.6971C10.9714 16.4057 11.4 16.2686 11.9829 16.2686C12.5314 16.2686 12.96 16.4229 13.2686 16.7143C13.5771 17.0057 13.7314 17.4343 13.7314 17.9829C13.7314 18.4971 13.5771 18.9257 13.2686 19.2171C12.96 19.5257 12.5314 19.68 11.9829 19.68C11.4171 19.68 10.9886 19.5257 10.68 19.2343Z" fill="#E5E5E5"/>
</svg>
