<svg width="60" height="48" viewBox="0 0 60 48" fill="none" xmlns="http://www.w3.org/2000/svg">
<path d="M29.9906 30C35.3728 30 39.6562 25.635 39.6562 20.25C39.6562 14.865 35.2931 10.5 29.9906 10.5C24.6084 10.5 20.325 14.865 20.325 20.25C20.2406 25.6313 24.6094 30 29.9906 30ZM34.6781 33H25.3219C17.9625 33 12 38.5969 12 45.4969C12 46.8844 13.1906 48 14.6625 48H45.3375C46.8094 48 48 46.8844 48 45.4969C48 38.5969 42.0375 33 34.6781 33ZM48 15C52.1419 15 55.5 11.6419 55.5 7.5C55.5 3.35812 52.1437 0 48 0C43.8581 0 40.5 3.35812 40.5 7.5C40.5 11.6419 43.8563 15 48 15ZM17.2406 20.25C17.2406 19.7392 17.3327 19.2534 17.3915 18.7584C16.3687 18.1969 15.2437 18 14.0531 18H8.2575C3.6975 18 0 21.9187 0 26.7469C0 27.7125 0.739406 28.5 1.65188 28.5H20.355C18.4406 26.2687 17.2406 23.4094 17.2406 20.25ZM12 15C16.1419 15 19.5 11.6419 19.5 7.5C19.5 3.35812 16.1437 0 12 0C7.85812 0 4.5 3.35812 4.5 7.5C4.5 11.6419 7.85812 15 12 15ZM51.7406 18H45.9431C44.7431 18 43.6106 18.2847 42.5813 18.7725C42.6375 19.2656 42.7312 19.7437 42.7312 20.25C42.7312 23.4103 41.5331 26.2697 39.6225 28.5H58.3444C59.2594 28.5 60 27.7125 60 26.7469C60 21.9187 56.3063 18 51.7406 18Z" fill="#5CB85C"/>
</svg>
