<svg width="24" height="24" viewBox="0 0 24 24" fill="none" xmlns="http://www.w3.org/2000/svg">
<path d="M13.3333 6.66667H12.24C10.76 6.66667 9.33333 8.26667 9.33333 9.54667V12L5.33333 16V12H2.66667C1.2 12 0 10.8 0 9.33333V2.66667C0 1.2 1.2 0 2.66667 0H10.6667C12.1333 0 13.3333 1.2 13.3333 2.66667V6.66667ZM13.3333 8H21.3333C22.8 8 24 9.2 24 10.6667V17.3333C24 18.8 22.8 20 21.3333 20H18.6667V24L14.6667 20H13.3333C11.8667 20 10.6667 18.8 10.6667 17.3333V10.6667C10.6667 9.2 11.8667 8 13.3333 8Z" fill="#C9C9C9"/>
</svg>
