<svg width="20" height="20" viewBox="0 0 20 20" fill="none" xmlns="http://www.w3.org/2000/svg">
<path d="M10.568 9.94986L3.03601 11.2049C2.94942 11.2193 2.86815 11.2563 2.80039 11.3121C2.73263 11.368 2.68077 11.4406 2.65001 11.5229L0.0530096 18.4809C-0.19499 19.1209 0.47401 19.7309 1.08801 19.4229L19.088 10.4229C19.2124 10.3605 19.317 10.2648 19.3901 10.1464C19.4632 10.0279 19.502 9.89152 19.502 9.75236C19.502 9.6132 19.4632 9.47678 19.3901 9.35836C19.317 9.23995 19.2124 9.14421 19.088 9.08186L1.08801 0.0818581C0.47401 -0.225142 -0.19499 0.384858 0.0530096 1.02386L2.65101 7.98186C2.68177 8.06409 2.73363 8.13676 2.80139 8.19259C2.86915 8.24841 2.95042 8.28541 3.03701 8.29986L10.569 9.55486C10.616 9.56236 10.6588 9.58636 10.6896 9.62256C10.7205 9.65876 10.7375 9.70478 10.7375 9.75236C10.7375 9.79994 10.7205 9.84596 10.6896 9.88216C10.6588 9.91835 10.616 9.94236 10.569 9.94986H10.568Z" fill="white"/>
</svg>
